<?xml version="1.0" encoding="UTF-8"?><svg xmlns="http://www.w3.org/2000/svg" width="800" height="378" version="1.0" shape-rendering="geometricPrecision"><defs><filter id="shadowBlur" x="0" y="0" width="200%" height="200%"><feOffset in="SourceGraphic" dx="3.0003002" dy="3.0003002" result="offOut"></feOffset><feGaussianBlur in="offOut" stdDeviation="3"></feGaussianBlur></filter></defs><g stroke-width="1" stroke-linecap="square" stroke-linejoin="round"><rect x="0" y="0" width="800" height="378" style="fill: #ffffff"></rect><path stroke="#969696" fill="#969696" filter="url(#shadowBlur)" d="M25.0 49.0 L173.0 49.0 L173.0 91.0 L25.0 91.0 z"></path><path stroke="#969696" fill="#969696" filter="url(#shadowBlur)" d="M627.0 49.0 L775.0 49.0 L775.0 91.0 L627.0 91.0 z"></path><path stroke="#969696" fill="#969696" filter="url(#shadowBlur)" d="M25.0 161.0 L173.0 161.0 L173.0 203.0 L25.0 203.0 z"></path><path stroke="#969696" fill="#969696" filter="url(#shadowBlur)" d="M477.0 161.0 L625.0 161.0 L625.0 203.0 L477.0 203.0 z"></path><path stroke="#969696" fill="#969696" filter="url(#shadowBlur)" d="M177.0 49.0 L323.0 49.0 L323.0 91.0 L177.0 91.0 z"></path><path stroke="#969696" fill="#969696" filter="url(#shadowBlur)" d="M327.0 49.0 L473.0 49.0 L473.0 91.0 L327.0 91.0 z"></path><path stroke="#969696" fill="#969696" filter="url(#shadowBlur)" d="M477.0 49.0 L623.0 49.0 L623.0 91.0 L477.0 91.0 z"></path><path stroke="#969696" fill="#969696" filter="url(#shadowBlur)" d="M177.0 161.0 L323.0 161.0 L323.0 203.0 L177.0 203.0 z"></path><path stroke="#969696" fill="#969696" filter="url(#shadowBlur)" d="M327.0 161.0 L473.0 161.0 L473.0 203.0 L327.0 203.0 z"></path><path stroke="#969696" fill="#969696" filter="url(#shadowBlur)" d="M395.0 273.0 L465.0 273.0 L465.0 301.0 L395.0 301.0 z"></path><path stroke="#969696" fill="#969696" filter="url(#shadowBlur)" d="M135.0 273.0 L205.0 273.0 L205.0 299.0 L135.0 299.0 z"></path><path stroke="#969696" fill="#969696" filter="url(#shadowBlur)" d="M135.0 317.0 L205.0 317.0 L205.0 343.0 L135.0 343.0 z"></path><path stroke="#969696" fill="#969696" filter="url(#shadowBlur)" d="M265.0 273.0 L335.0 273.0 L335.0 299.0 L265.0 299.0 z"></path><path stroke="#969696" fill="#969696" filter="url(#shadowBlur)" d="M265.0 317.0 L335.0 317.0 L335.0 343.0 L265.0 343.0 z"></path><path stroke="#969696" fill="#969696" filter="url(#shadowBlur)" d="M135.0 303.0 L205.0 303.0 L205.0 313.0 L135.0 313.0 z"></path><path stroke="#969696" fill="#969696" filter="url(#shadowBlur)" d="M265.0 303.0 L335.0 303.0 L335.0 313.0 L265.0 313.0 z"></path><path stroke="#000000" stroke-width="1.0" stroke-linecap="round" stroke-linejoin="round" fill="white" d="M25.0 49.0 L173.0 49.0 L173.0 91.0 L25.0 91.0 z"></path><path stroke="#000000" stroke-width="1.0" stroke-linecap="round" stroke-linejoin="round" fill="white" d="M627.0 49.0 L775.0 49.0 L775.0 91.0 L627.0 91.0 z"></path><path stroke="#000000" stroke-width="1.0" stroke-linecap="round" stroke-linejoin="round" fill="white" d="M25.0 161.0 L173.0 161.0 L173.0 203.0 L25.0 203.0 z"></path><path stroke="#000000" stroke-width="1.0" stroke-linecap="round" stroke-linejoin="round" fill="white" d="M477.0 161.0 L625.0 161.0 L625.0 203.0 L477.0 203.0 z"></path><path stroke="#000000" stroke-width="1.0" stroke-linecap="round" stroke-linejoin="round" fill="white" d="M177.0 49.0 L323.0 49.0 L323.0 91.0 L177.0 91.0 z"></path><path stroke="#000000" stroke-width="1.0" stroke-linecap="round" stroke-linejoin="round" fill="white" d="M327.0 49.0 L473.0 49.0 L473.0 91.0 L327.0 91.0 z"></path><path stroke="#000000" stroke-width="1.0" stroke-linecap="round" stroke-linejoin="round" fill="white" d="M477.0 49.0 L623.0 49.0 L623.0 91.0 L477.0 91.0 z"></path><path stroke="#000000" stroke-width="1.0" stroke-linecap="round" stroke-linejoin="round" fill="white" d="M177.0 161.0 L323.0 161.0 L323.0 203.0 L177.0 203.0 z"></path><path stroke="#000000" stroke-width="1.0" stroke-linecap="round" stroke-linejoin="round" fill="white" d="M327.0 161.0 L473.0 161.0 L473.0 203.0 L327.0 203.0 z"></path><path stroke="#000000" stroke-width="1.0" stroke-linecap="round" stroke-linejoin="round" fill="white" d="M395.0 273.0 L465.0 273.0 L465.0 301.0 L395.0 301.0 z"></path><path stroke="#000000" stroke-width="1.0" stroke-linecap="round" stroke-linejoin="round" fill="white" d="M135.0 273.0 L205.0 273.0 L205.0 299.0 L135.0 299.0 z"></path><path stroke="#000000" stroke-width="1.0" stroke-linecap="round" stroke-linejoin="round" fill="white" d="M135.0 317.0 L205.0 317.0 L205.0 343.0 L135.0 343.0 z"></path><path stroke="#000000" stroke-width="1.0" stroke-linecap="round" stroke-linejoin="round" fill="white" d="M265.0 273.0 L335.0 273.0 L335.0 299.0 L265.0 299.0 z"></path><path stroke="#000000" stroke-width="1.0" stroke-linecap="round" stroke-linejoin="round" fill="white" d="M265.0 317.0 L335.0 317.0 L335.0 343.0 L265.0 343.0 z"></path><path stroke="#000000" stroke-width="1.0" stroke-linecap="round" stroke-linejoin="round" fill="white" d="M135.0 303.0 L205.0 303.0 L205.0 313.0 L135.0 313.0 z"></path><path stroke="#000000" stroke-width="1.0" stroke-linecap="round" stroke-linejoin="round" fill="white" d="M265.0 303.0 L335.0 303.0 L335.0 313.0 L265.0 313.0 z"></path><path stroke="none" stroke-width="1.0" stroke-linecap="round" stroke-linejoin="round" fill="#000000" d="M75.0 98.0 L70.0 112.0 L80.0 112.0 z"></path><path stroke="none" stroke-width="1.0" stroke-linecap="round" stroke-linejoin="round" fill="#000000" d="M645.0 98.0 L640.0 112.0 L650.0 112.0 z"></path><path stroke="none" stroke-width="1.0" stroke-linecap="round" stroke-linejoin="round" fill="#000000" d="M75.0 210.0 L70.0 224.0 L80.0 224.0 z"></path><path stroke="none" stroke-width="1.0" stroke-linecap="round" stroke-linejoin="round" fill="#000000" d="M225.0 210.0 L220.0 224.0 L230.0 224.0 z"></path><path stroke="#000000" stroke-width="1.0" stroke-linecap="round" stroke-linejoin="round" fill="none" d="M215.0 287.0 L255.0 287.0 "></path><path stroke="#000000" stroke-width="1.0" stroke-linecap="round" stroke-linejoin="round" fill="none" d="M345.0 287.0 L385.0 287.0 "></path><path stroke="#000000" stroke-width="1.0" stroke-linecap="round" stroke-linejoin="round" fill="none" d="M215.0 329.0 L255.0 329.0 "></path><text x="29" y="39" font-family="sans-serif" font-size="13" stroke="none" fill="#000000"><![CDATA[① 洪峰增长期：push 远快于 pop，满段向右堆积]]></text><text x="90" y="67" font-family="sans-serif" font-size="13" stroke="none" fill="#000000"><![CDATA[满段]]></text><text x="240" y="67" font-family="sans-serif" font-size="13" stroke="none" fill="#000000"><![CDATA[满段]]></text><text x="390" y="67" font-family="sans-serif" font-size="13" stroke="none" fill="#000000"><![CDATA[满段]]></text><text x="540" y="67" font-family="sans-serif" font-size="13" stroke="none" fill="#000000"><![CDATA[满段]]></text><text x="675" y="68" font-family="sans-serif" font-size="13" stroke="none" fill="#000000"><![CDATA[tail段]]></text><text x="680" y="81" font-family="sans-serif" font-size="13" stroke="none" fill="#000000"><![CDATA[写入中]]></text><text x="60" y="124" font-family="sans-serif" font-size="13" stroke="none" fill="#ffffff"><![CDATA[head]]></text><text x="638" y="124" font-family="sans-serif" font-size="13" stroke="none" fill="#ffffff"><![CDATA[tail]]></text><text x="26" y="151" font-family="sans-serif" font-size="13" stroke="none" fill="#000000"><![CDATA[② 洪峰退去：消费追上，head 段耗尽整段归还 GC]]></text><text x="80" y="179" font-family="sans-serif" font-size="13" stroke="none" fill="#000000"><![CDATA[已归还]]></text><text x="91" y="193" font-family="sans-serif" font-size="13" stroke="none" fill="#000000"><![CDATA[GC]]></text><text x="240" y="179" font-family="sans-serif" font-size="13" stroke="none" fill="#000000"><![CDATA[满段]]></text><text x="390" y="179" font-family="sans-serif" font-size="13" stroke="none" fill="#000000"><![CDATA[满段]]></text><text x="525" y="180" font-family="sans-serif" font-size="13" stroke="none" fill="#000000"><![CDATA[tail段]]></text><text x="530" y="193" font-family="sans-serif" font-size="13" stroke="none" fill="#000000"><![CDATA[写入中]]></text><text x="41" y="236" font-family="sans-serif" font-size="13" stroke="none" fill="#ffffff"><![CDATA[16KB 归还]]></text><text x="171" y="236" font-family="sans-serif" font-size="13" stroke="none" fill="#ffffff"><![CDATA[head 前移]]></text><text x="27" y="263" font-family="sans-serif" font-size="13" stroke="none" fill="#000000"><![CDATA[③ workbuf 对照：不归还，块在两条链之间循环复用]]></text><text x="38" y="278" font-family="sans-serif" font-size="13" stroke="none" fill="#000000"><![CDATA[full 链]]></text><text x="160" y="291" font-family="sans-serif" font-size="13" stroke="none" fill="#000000"><![CDATA[满块]]></text><text x="290" y="291" font-family="sans-serif" font-size="13" stroke="none" fill="#000000"><![CDATA[满块]]></text><text x="420" y="291" font-family="sans-serif" font-size="13" stroke="none" fill="#000000"><![CDATA[满块]]></text><text x="31" y="320" font-family="sans-serif" font-size="13" stroke="none" fill="#000000"><![CDATA[empty 链]]></text><text x="160" y="333" font-family="sans-serif" font-size="13" stroke="none" fill="#000000"><![CDATA[空块]]></text><text x="290" y="333" font-family="sans-serif" font-size="13" stroke="none" fill="#000000"><![CDATA[空块]]></text><text x="375" y="333" font-family="sans-serif" font-size="13" stroke="none" fill="#000000"><![CDATA[← 耗尽的块挂回这里，下轮复用]]></text></g></svg>